# xmcd CD database file
#
# Track frame offsets:
#	150
#	19723
#	46949
#	81599
#	103124
#	118036
#	137399
#	167509
#	198825
#	245775
#	288487
#	306622
#
# Disc length: 4305 seconds
#
# Revision: 0
# Processed by: cddbd v1.4PL0 Copyright (c) Steve Scherf et al.
# Submitted via: CDex 1.50beta9
#
DISCID=a910cf0c
DTITLE=Various Artist - Echoes Livingroom Concerts Volume 8
DYEAR=2002
DGENRE=New Age
TTITLE0=Offerings by Shaman's Dream
TTITLE1=Marias River Breakdown by Philip Aaberg
TTITLE2=Steel Harmonics by Robert Rich
TTITLE3=Maybe in a Prayer by Solas
TTITLE4=Terra Mesa by Suzanne Ciani
TTITLE5=Coming Home by David Cullen
TTITLE6=Winter Moon by Lisa Lynne
TTITLE7=Stiga by Lumin
TTITLE8=The Mountain by Wave World
TTITLE9=Socha Socha by Ancient Future
TTITLE10=Bryn y Ellyllon by Richard Searles
TTITLE11=Chi Passa per' sta Strada by YoYo Ma and the Silk Road Ensemble
EXTD=YEAR: 2002
EXTT0=
EXTT1=
EXTT2=
EXTT3=
EXTT4=
EXTT5=
EXTT6=
EXTT7=
EXTT8=
EXTT9=
EXTT10=
EXTT11=
PLAYORDER=
